<?xml version="1.0" encoding="UTF-8"?>
<!DOCTYPE svg PUBLIC "-//W3C//DTD SVG 1.1//EN" "http://www.w3.org/Graphics/SVG/1.1/DTD/svg11.dtd">
<svg xmlns="http://www.w3.org/2000/svg" version="1.1" width="512px" height="512px" style="shape-rendering:geometricPrecision; text-rendering:geometricPrecision; image-rendering:optimizeQuality; fill-rule:evenodd; clip-rule:evenodd" xmlns:xlink="http://www.w3.org/1999/xlink">
<g><path style="opacity:0.995" fill="#443f43" d="M 226.5,-0.5 C 229.833,-0.5 233.167,-0.5 236.5,-0.5C 202.773,7.40724 186.606,28.7406 188,63.5C 189.432,67.5311 191.266,71.3645 193.5,75C 192.944,75.3826 192.611,75.8826 192.5,76.5C 180.389,80.7783 172.556,89.1116 169,101.5C 168.667,122.833 168.333,144.167 168,165.5C 164.791,176.876 157.291,182.876 145.5,183.5C 145.5,176.167 145.5,168.833 145.5,161.5C 145.5,154.5 145.5,147.5 145.5,140.5C 139.866,140.378 134.866,142.045 130.5,145.5C 130.5,130.167 130.5,114.833 130.5,99.5C 134.53,70.106 147.53,45.4393 169.5,25.5C 186.097,11.7037 205.097,3.03701 226.5,-0.5 Z"/></g>
<g><path style="opacity:0.999" fill="#554e55" d="M 236.5,-0.5 C 282.5,-0.5 328.5,-0.5 374.5,-0.5C 384.624,5.02417 387.791,13.3575 384,24.5C 382.317,30.3859 380.151,36.0525 377.5,41.5C 373.257,46.9829 369.257,52.6495 365.5,58.5C 355.478,68.8478 343.812,76.8478 330.5,82.5C 329.702,82.9569 329.369,83.6236 329.5,84.5C 328.85,84.1961 328.183,83.8627 327.5,83.5C 321.394,85.8527 315.06,87.3527 308.5,88C 276.5,88.6667 244.5,88.6667 212.5,88C 209.756,87.1965 207.089,86.1965 204.5,85C 200.288,82.2597 196.288,79.4264 192.5,76.5C 192.611,75.8826 192.944,75.3826 193.5,75C 191.266,71.3645 189.432,67.5311 188,63.5C 186.606,28.7406 202.773,7.40724 236.5,-0.5 Z"/></g>
<g><path style="opacity:0.993" fill="#6e61b6" d="M 169.5,25.5 C 147.53,45.4393 134.53,70.106 130.5,99.5C 89.1851,132.101 63.6851,174.434 54,226.5C 47.8793,265.749 52.2127,303.749 67,340.5C 71.3327,350.499 76.166,360.165 81.5,369.5C 66.8395,376.827 55.8395,387.827 48.5,402.5C 9.97255,345.039 -3.19412,282.039 9,213.5C 29.3085,122.368 82.8085,59.7011 169.5,25.5 Z"/></g>
<g><path style="opacity:0.993" fill="#6e61b6" d="M 377.5,41.5 C 451.21,84.798 493.71,149.131 505,234.5C 510.845,295.789 496.678,351.789 462.5,402.5C 454.472,388.472 443.472,377.472 429.5,369.5C 460.353,316.323 467.52,259.99 451,200.5C 437.154,157.842 412.32,123.175 376.5,96.5C 375.257,83.1064 371.59,70.4397 365.5,58.5C 369.257,52.6495 373.257,46.9829 377.5,41.5 Z"/></g>
<g><path style="opacity:1" fill="#443f43" d="M 365.5,58.5 C 371.59,70.4397 375.257,83.1064 376.5,96.5C 376.5,112.5 376.5,128.5 376.5,144.5C 372.132,142.156 367.465,140.822 362.5,140.5C 362.5,147.5 362.5,154.5 362.5,161.5C 362.5,168.833 362.5,176.167 362.5,183.5C 352.657,183.08 345.657,178.413 341.5,169.5C 341.291,168.078 340.791,166.745 340,165.5C 339.5,147.17 339.333,128.836 339.5,110.5C 339.894,100.34 336.56,91.6734 329.5,84.5C 329.369,83.6236 329.702,82.9569 330.5,82.5C 343.812,76.8478 355.478,68.8478 365.5,58.5 Z"/></g>
<g><path style="opacity:1" fill="#f79575" d="M 192.5,76.5 C 196.288,79.4264 200.288,82.2597 204.5,85C 207.089,86.1965 209.756,87.1965 212.5,88C 244.5,88.6667 276.5,88.6667 308.5,88C 315.06,87.3527 321.394,85.8527 327.5,83.5C 328.183,83.8627 328.85,84.1961 329.5,84.5C 336.56,91.6734 339.894,100.34 339.5,110.5C 337.643,103.624 334.309,97.4574 329.5,92C 328.667,91.8333 327.833,91.6667 327,91.5C 319.954,93.5545 312.788,95.0545 305.5,96C 276.167,96.6667 246.833,96.6667 217.5,96C 213.347,95.6156 209.347,94.6156 205.5,93C 201.038,90.2029 196.872,87.0362 193,83.5C 187.287,86.2147 183.287,90.548 181,96.5C 180.333,139.833 180.333,183.167 181,226.5C 184.266,270.921 206.099,302.088 246.5,320C 254.55,323.11 262.884,324.61 271.5,324.5C 252.81,328.178 234.476,326.512 216.5,319.5C 216.167,319.5 215.833,319.5 215.5,319.5C 166.736,296.989 143.402,258.656 145.5,204.5C 134.186,203.691 126.353,198.024 122,187.5C 120.481,178.219 120.147,168.886 121,159.5C 122.86,153.831 126.027,149.164 130.5,145.5C 134.866,142.045 139.866,140.378 145.5,140.5C 145.5,147.5 145.5,154.5 145.5,161.5C 139.307,162.204 136.64,165.704 137.5,172C 136.386,178.637 139.053,182.471 145.5,183.5C 157.291,182.876 164.791,176.876 168,165.5C 168.333,144.167 168.667,122.833 169,101.5C 172.556,89.1116 180.389,80.7783 192.5,76.5 Z"/></g>
<g><path style="opacity:1" fill="#faab90" d="M 339.5,110.5 C 339.333,128.836 339.5,147.17 340,165.5C 340.791,166.745 341.291,168.078 341.5,169.5C 340.896,179.476 345.562,186.309 355.5,190C 357.81,190.497 360.143,190.663 362.5,190.5C 362.5,194.833 362.5,199.167 362.5,203.5C 363.5,203.5 364.5,203.5 365.5,203.5C 364.432,204.434 363.099,204.768 361.5,204.5C 364.85,258.394 342.183,296.394 293.5,318.5C 292.272,319.306 291.272,320.306 290.5,321.5C 290.083,320.876 289.416,320.543 288.5,320.5C 282.923,322.311 277.256,323.645 271.5,324.5C 262.884,324.61 254.55,323.11 246.5,320C 206.099,302.088 184.266,270.921 181,226.5C 180.333,183.167 180.333,139.833 181,96.5C 183.287,90.548 187.287,86.2147 193,83.5C 196.872,87.0362 201.038,90.2029 205.5,93C 209.347,94.6156 213.347,95.6156 217.5,96C 246.833,96.6667 276.167,96.6667 305.5,96C 312.788,95.0545 319.954,93.5545 327,91.5C 327.833,91.6667 328.667,91.8333 329.5,92C 334.309,97.4574 337.643,103.624 339.5,110.5 Z"/></g>
<g><path style="opacity:1" fill="#8379c0" d="M 376.5,96.5 C 412.32,123.175 437.154,157.842 451,200.5C 467.52,259.99 460.353,316.323 429.5,369.5C 422.955,367.041 416.289,364.874 409.5,363C 387.106,358.355 364.773,353.522 342.5,348.5C 337.95,347.509 333.283,346.509 328.5,345.5C 317.348,337.196 306.015,329.03 294.5,321C 293.748,320.329 293.414,319.496 293.5,318.5C 342.183,296.394 364.85,258.394 361.5,204.5C 363.099,204.768 364.432,204.434 365.5,203.5C 376.183,201.989 383.016,195.989 386,185.5C 386.667,176.5 386.667,167.5 386,158.5C 384.072,152.973 380.905,148.306 376.5,144.5C 376.5,128.5 376.5,112.5 376.5,96.5 Z"/></g>
<g><path style="opacity:1" fill="#8379c0" d="M 130.5,99.5 C 130.5,114.833 130.5,130.167 130.5,145.5C 126.027,149.164 122.86,153.831 121,159.5C 120.147,168.886 120.481,178.219 122,187.5C 126.353,198.024 134.186,203.691 145.5,204.5C 143.402,258.656 166.736,296.989 215.5,319.5C 203.5,328.167 191.5,336.833 179.5,345.5C 153.199,351.394 126.866,357.227 100.5,363C 93.9544,364.609 87.6211,366.776 81.5,369.5C 76.166,360.165 71.3327,350.499 67,340.5C 52.2127,303.749 47.8793,265.749 54,226.5C 63.6851,174.434 89.1851,132.101 130.5,99.5 Z"/></g>
<g><path style="opacity:1" fill="#474144" d="M 200.5,117.5 C 210.506,117.334 220.506,117.5 230.5,118C 236.178,119.857 238.345,123.691 237,129.5C 236.226,131.939 234.726,133.773 232.5,135C 221.167,135.667 209.833,135.667 198.5,135C 191.394,128.155 192.061,122.321 200.5,117.5 Z"/></g>
<g><path style="opacity:1" fill="#474144" d="M 274.5,117.5 C 284.839,117.334 295.172,117.5 305.5,118C 314.311,123.332 314.644,128.998 306.5,135C 295.5,135.667 284.5,135.667 273.5,135C 268.845,132.103 267.345,127.937 269,122.5C 270.73,120.598 272.563,118.931 274.5,117.5 Z"/></g>
<g><path style="opacity:1" fill="#f79575" d="M 376.5,144.5 C 380.905,148.306 384.072,152.973 386,158.5C 386.667,167.5 386.667,176.5 386,185.5C 383.016,195.989 376.183,201.989 365.5,203.5C 364.5,203.5 363.5,203.5 362.5,203.5C 362.5,199.167 362.5,194.833 362.5,190.5C 360.143,190.663 357.81,190.497 355.5,190C 345.562,186.309 340.896,179.476 341.5,169.5C 345.657,178.413 352.657,183.08 362.5,183.5C 368.457,182.032 371.124,178.198 370.5,172C 370.792,168.786 369.959,165.952 368,163.5C 366.416,162.139 364.582,161.472 362.5,161.5C 362.5,154.5 362.5,147.5 362.5,140.5C 367.465,140.822 372.132,142.156 376.5,144.5 Z"/></g>
<g><path style="opacity:1" fill="#474144" d="M 224.5,183.5 C 221.401,187.24 217.401,188.407 212.5,187C 210.598,185.27 208.931,183.437 207.5,181.5C 207.5,177.167 207.5,172.833 207.5,168.5C 213.757,171.934 216.091,169.934 214.5,162.5C 216.091,155.066 213.757,153.066 207.5,156.5C 207.683,148.477 211.683,144.977 219.5,146C 221.624,147.122 223.457,148.622 225,150.5C 225.809,161.576 225.642,172.576 224.5,183.5 Z"/></g>
<g><path style="opacity:1" fill="#474144" d="M 298.5,182.5 C 295.411,187.121 291.077,188.621 285.5,187C 283.598,185.27 281.931,183.437 280.5,181.5C 280.5,177.167 280.5,172.833 280.5,168.5C 286.757,171.934 289.091,169.934 287.5,162.5C 289.091,155.066 286.757,153.066 280.5,156.5C 280.636,148.528 284.636,145.028 292.5,146C 294.624,147.122 296.457,148.622 298,150.5C 298.5,161.161 298.667,171.828 298.5,182.5 Z"/></g>
<g><path style="opacity:1" fill="#faf7f6" d="M 207.5,168.5 C 207.5,164.5 207.5,160.5 207.5,156.5C 213.757,153.066 216.091,155.066 214.5,162.5C 216.091,169.934 213.757,171.934 207.5,168.5 Z"/></g>
<g><path style="opacity:1" fill="#f9f6f5" d="M 280.5,168.5 C 280.5,164.5 280.5,160.5 280.5,156.5C 286.757,153.066 289.091,155.066 287.5,162.5C 289.091,169.934 286.757,171.934 280.5,168.5 Z"/></g>
<g><path style="opacity:1" fill="#dd7f66" d="M 145.5,161.5 C 145.5,168.833 145.5,176.167 145.5,183.5C 139.053,182.471 136.386,178.637 137.5,172C 136.64,165.704 139.307,162.204 145.5,161.5 Z"/></g>
<g><path style="opacity:1" fill="#dd7f66" d="M 362.5,161.5 C 364.582,161.472 366.416,162.139 368,163.5C 369.959,165.952 370.792,168.786 370.5,172C 371.124,178.198 368.457,182.032 362.5,183.5C 362.5,176.167 362.5,168.833 362.5,161.5 Z"/></g>
<g><path style="opacity:1" fill="#f99675" d="M 251.5,165.5 C 255.426,165.047 258.592,166.38 261,169.5C 265.434,182.89 268.101,196.556 269,210.5C 265.764,220.702 258.931,224.535 248.5,222C 240.224,216.257 237.39,208.424 240,198.5C 242.584,189.583 244.918,180.583 247,171.5C 247.804,168.854 249.304,166.854 251.5,165.5 Z"/></g>
<g><path style="opacity:1" fill="#f59575" d="M 207.5,181.5 C 208.931,183.437 210.598,185.27 212.5,187C 217.401,188.407 221.401,187.24 224.5,183.5C 225.964,192.519 221.964,196.019 212.5,194C 208.205,190.907 206.538,186.74 207.5,181.5 Z"/></g>
<g><path style="opacity:1" fill="#f59474" d="M 280.5,181.5 C 281.931,183.437 283.598,185.27 285.5,187C 291.077,188.621 295.411,187.121 298.5,182.5C 299.342,192.157 295.009,195.99 285.5,194C 281.205,190.907 279.538,186.74 280.5,181.5 Z"/></g>
<g><path style="opacity:1" fill="#e52880" d="M 230.5,231.5 C 229.146,237.117 231.146,240.784 236.5,242.5C 231.187,244.49 226.52,247.49 222.5,251.5C 217.698,245.489 216.698,238.989 219.5,232C 223.152,231.501 226.818,231.335 230.5,231.5 Z"/></g>
<g><path style="opacity:1" fill="#fef6f8" d="M 230.5,231.5 C 246.833,231.5 263.167,231.5 279.5,231.5C 280.648,236.439 278.981,239.939 274.5,242C 266.841,242.5 259.174,242.666 251.5,242.5C 246.5,242.5 241.5,242.5 236.5,242.5C 231.146,240.784 229.146,237.117 230.5,231.5 Z"/></g>
<g><path style="opacity:1" fill="#e4237f" d="M 279.5,231.5 C 283.514,231.334 287.514,231.501 291.5,232C 293.504,234.841 294.004,238.007 293,241.5C 289.586,252.737 282.753,261.071 272.5,266.5C 269.738,254.741 262.738,246.741 251.5,242.5C 259.174,242.666 266.841,242.5 274.5,242C 278.981,239.939 280.648,236.439 279.5,231.5 Z"/></g>
<g><path style="opacity:1" fill="#fd646f" d="M 236.5,242.5 C 241.5,242.5 246.5,242.5 251.5,242.5C 262.738,246.741 269.738,254.741 272.5,266.5C 255.555,273.928 240.389,271.261 227,258.5C 225.277,256.283 223.777,253.95 222.5,251.5C 226.52,247.49 231.187,244.49 236.5,242.5 Z"/></g>
<g><path style="opacity:1" fill="#c7eefd" d="M 215.5,319.5 C 215.833,319.5 216.167,319.5 216.5,319.5C 221.42,327.672 226.087,336.005 230.5,344.5C 237.596,356.262 244.262,368.262 250.5,380.5C 233.768,381.112 217.768,384.779 202.5,391.5C 194.833,376.167 187.167,360.833 179.5,345.5C 191.5,336.833 203.5,328.167 215.5,319.5 Z"/></g>
<g><path style="opacity:1" fill="#dd7f66" d="M 216.5,319.5 C 234.476,326.512 252.81,328.178 271.5,324.5C 277.256,323.645 282.923,322.311 288.5,320.5C 289.416,320.543 290.083,320.876 290.5,321.5C 286.087,329.995 281.42,338.328 276.5,346.5C 260.656,355.032 245.323,354.366 230.5,344.5C 226.087,336.005 221.42,327.672 216.5,319.5 Z"/></g>
<g><path style="opacity:1" fill="#fdfdfd" d="M 293.5,318.5 C 293.414,319.496 293.748,320.329 294.5,321C 306.015,329.03 317.348,337.196 328.5,345.5C 321.072,360.691 313.405,375.691 305.5,390.5C 291.34,385.139 276.674,382.139 261.5,381.5C 260.041,381.567 258.708,381.234 257.5,380.5C 263.805,369.184 270.139,357.85 276.5,346.5C 281.42,338.328 286.087,329.995 290.5,321.5C 291.272,320.306 292.272,319.306 293.5,318.5 Z"/></g>
<g><path style="opacity:1" fill="#64dafa" d="M 328.5,345.5 C 333.283,346.509 337.95,347.509 342.5,348.5C 334.895,364.71 327.561,381.044 320.5,397.5C 315.311,395.403 310.311,393.07 305.5,390.5C 313.405,375.691 321.072,360.691 328.5,345.5 Z"/></g>
<g><path style="opacity:0.998" fill="#62dafa" d="M 179.5,345.5 C 187.167,360.833 194.833,376.167 202.5,391.5C 192.044,395.892 182.377,401.559 173.5,408.5C 168.993,404.832 164.327,401.332 159.5,398C 147.875,396.625 142.375,401.791 143,413.5C 143.374,414.416 143.874,415.25 144.5,416C 134.213,412.814 127.546,416.48 124.5,427C 125.012,430.037 126.012,432.871 127.5,435.5C 125.5,436.167 123.5,436.833 121.5,437.5C 112.059,441.975 110.059,448.808 115.5,458C 111.89,458.472 108.89,459.972 106.5,462.5C 83.4358,446.103 64.1024,426.103 48.5,402.5C 55.8395,387.827 66.8395,376.827 81.5,369.5C 87.6211,366.776 93.9544,364.609 100.5,363C 126.866,357.227 153.199,351.394 179.5,345.5 Z"/></g>
<g><path style="opacity:1" fill="#f89676" d="M 230.5,344.5 C 245.323,354.366 260.656,355.032 276.5,346.5C 270.139,357.85 263.805,369.184 257.5,380.5C 255.167,380.5 252.833,380.5 250.5,380.5C 244.262,368.262 237.596,356.262 230.5,344.5 Z"/></g>
<g><path style="opacity:0.997" fill="#c7eefd" d="M 342.5,348.5 C 364.773,353.522 387.106,358.355 409.5,363C 416.289,364.874 422.955,367.041 429.5,369.5C 443.472,377.472 454.472,388.472 462.5,402.5C 445.877,427.457 425.21,448.457 400.5,465.5C 399.942,464.21 398.942,463.377 397.5,463C 390.842,462.5 384.175,462.334 377.5,462.5C 368.918,441.747 355.918,424.247 338.5,410C 332.321,405.97 326.321,401.804 320.5,397.5C 327.561,381.044 334.895,364.71 342.5,348.5 Z"/></g>
<g><path style="opacity:0.997" fill="#433f43" d="M 250.5,380.5 C 252.833,380.5 255.167,380.5 257.5,380.5C 258.708,381.234 260.041,381.567 261.5,381.5C 273.538,388.889 275.705,398.555 268,410.5C 267.503,412.81 267.337,415.143 267.5,417.5C 266.845,437.861 267.512,457.861 269.5,477.5C 283.806,483.448 291.806,494.115 293.5,509.5C 287.979,509.782 282.646,510.449 277.5,511.5C 262.833,511.5 248.167,511.5 233.5,511.5C 227.804,510.697 222.137,509.697 216.5,508.5C 218.52,493.14 226.853,482.807 241.5,477.5C 242.497,457.674 242.83,437.674 242.5,417.5C 241.209,417.263 240.209,417.596 239.5,418.5C 228.514,419.829 218.18,423.162 208.5,428.5C 183.087,442.909 166.753,464.243 159.5,492.5C 155.277,491.389 151.277,489.722 147.5,487.5C 147.219,485.037 146.219,482.87 144.5,481C 156.72,477.668 160.053,470.335 154.5,459C 166.557,457.959 171.223,451.626 168.5,440C 182.776,442.724 188.942,436.891 187,422.5C 182.352,418.018 177.852,413.351 173.5,408.5C 182.377,401.559 192.044,395.892 202.5,391.5C 217.768,384.779 233.768,381.112 250.5,380.5 Z"/></g>
<g><path style="opacity:0.999" fill="#564f57" d="M 261.5,381.5 C 276.674,382.139 291.34,385.139 305.5,390.5C 310.311,393.07 315.311,395.403 320.5,397.5C 326.321,401.804 332.321,405.97 338.5,410C 355.918,424.247 368.918,441.747 377.5,462.5C 371.824,462.334 366.157,462.501 360.5,463C 353.654,467.244 351.821,473.078 355,480.5C 356.742,483.746 359.242,486.079 362.5,487.5C 358.813,490.01 354.813,492.01 350.5,493.5C 344.189,465.864 328.855,444.864 304.5,430.5C 294.434,424.143 283.434,420.143 271.5,418.5C 270.432,417.566 269.099,417.232 267.5,417.5C 267.337,415.143 267.503,412.81 268,410.5C 275.705,398.555 273.538,388.889 261.5,381.5 Z"/></g>
<g><path style="opacity:0.998" fill="#f9ab90" d="M 173.5,408.5 C 177.852,413.351 182.352,418.018 187,422.5C 188.942,436.891 182.776,442.724 168.5,440C 171.223,451.626 166.557,457.959 154.5,459C 160.053,470.335 156.72,477.668 144.5,481C 146.219,482.87 147.219,485.037 147.5,487.5C 132.691,480.934 119.024,472.601 106.5,462.5C 108.89,459.972 111.89,458.472 115.5,458C 110.059,448.808 112.059,441.975 121.5,437.5C 124.187,437.664 126.854,437.497 129.5,437C 128.956,436.283 128.289,435.783 127.5,435.5C 126.012,432.871 125.012,430.037 124.5,427C 127.546,416.48 134.213,412.814 144.5,416C 143.874,415.25 143.374,414.416 143,413.5C 142.375,401.791 147.875,396.625 159.5,398C 164.327,401.332 168.993,404.832 173.5,408.5 Z"/></g>
<g><path style="opacity:1" fill="#63d9f9" d="M 239.5,418.5 C 239.833,418.5 240.167,418.5 240.5,418.5C 234.851,425.624 228.851,432.457 222.5,439C 214.335,440.35 209.668,436.85 208.5,428.5C 218.18,423.162 228.514,419.829 239.5,418.5 Z"/></g>
<g><path style="opacity:1" fill="#9bb4c0" d="M 239.5,418.5 C 240.209,417.596 241.209,417.263 242.5,417.5C 242.83,437.674 242.497,457.674 241.5,477.5C 241.83,457.66 241.497,437.993 240.5,418.5C 240.167,418.5 239.833,418.5 239.5,418.5 Z"/></g>
<g><path style="opacity:1" fill="#a6c5d0" d="M 267.5,417.5 C 269.099,417.232 270.432,417.566 271.5,418.5C 271.167,418.5 270.833,418.5 270.5,418.5C 269.168,427.809 268.501,437.476 268.5,447.5C 268.512,457.574 268.845,467.574 269.5,477.5C 267.512,457.861 266.845,437.861 267.5,417.5 Z"/></g>
<g><path style="opacity:0.996" fill="#c7eefd" d="M 270.5,418.5 C 277.352,425.852 284.352,433.018 291.5,440C 298.733,440.947 303.067,437.78 304.5,430.5C 328.855,444.864 344.189,465.864 350.5,493.5C 332.067,500.858 313.067,506.191 293.5,509.5C 291.806,494.115 283.806,483.448 269.5,477.5C 268.845,467.574 268.512,457.574 268.5,447.5C 268.501,437.476 269.168,427.809 270.5,418.5 Z"/></g>
<g><path style="opacity:1" fill="#64daf9" d="M 270.5,418.5 C 270.833,418.5 271.167,418.5 271.5,418.5C 283.434,420.143 294.434,424.143 304.5,430.5C 303.067,437.78 298.733,440.947 291.5,440C 284.352,433.018 277.352,425.852 270.5,418.5 Z"/></g>
<g><path style="opacity:0.997" fill="#c7eefd" d="M 240.5,418.5 C 241.497,437.993 241.83,457.66 241.5,477.5C 226.853,482.807 218.52,493.14 216.5,508.5C 196.569,506.104 177.569,500.77 159.5,492.5C 166.753,464.243 183.087,442.909 208.5,428.5C 209.668,436.85 214.335,440.35 222.5,439C 228.851,432.457 234.851,425.624 240.5,418.5 Z"/></g>
<g><path style="opacity:1" fill="#c0beba" d="M 127.5,435.5 C 128.289,435.783 128.956,436.283 129.5,437C 126.854,437.497 124.187,437.664 121.5,437.5C 123.5,436.833 125.5,436.167 127.5,435.5 Z"/></g>
<g><path style="opacity:0.982" fill="#faab90" d="M 377.5,462.5 C 384.175,462.334 390.842,462.5 397.5,463C 398.942,463.377 399.942,464.21 400.5,465.5C 388.779,474.364 376.113,481.697 362.5,487.5C 359.242,486.079 356.742,483.746 355,480.5C 351.821,473.078 353.654,467.244 360.5,463C 366.157,462.501 371.824,462.334 377.5,462.5 Z"/></g>
</svg>
